<?xml version="1.0" encoding="utf-8"?>
<svg class="svgImg" viewBox="70 70 280 280" xmlns="http://www.w3.org/2000/svg">
  <path class="svgPath" d="M 130.362 239.852 L 135.363 246.855 C 135.363 246.855 141.032 242.52 141.032 242.853 C 141.032 243.186 147.367 240.519 147.367 240.519 C 147.367 240.519 154.036 238.185 154.37 238.185 C 154.704 238.185 162.372 236.851 162.706 236.851 C 163.04 236.851 168.046 236.802 168.374 236.851 C 168.702 236.9 178.181 235.877 178.511 236.117 C 178.841 236.357 182.391 236.941 184.045 237.118 C 185.699 237.295 191.055 238.379 191.382 238.718 C 191.709 239.057 193.998 238.868 194.383 238.919 C 194.768 238.97 199.905 236.905 199.784 236.784 C 200.528 236.908 205.262 233.23 204.986 233.184 L 208.721 229.182 L 213.056 225.514 L 216.99 221.979 L 221.725 216.511 L 226.394 210.442 L 228.394 206.841 L 228.727 203.507 C 228.843 203.507 226.798 200.723 226.66 200.64 C 226.522 200.557 224.324 197.611 223.661 197.706 C 223.377 197.233 213.889 198.273 214.523 198.639 C 215.157 199.005 218.825 200.14 219.525 200.505 C 220.225 200.87 221.787 202.938 221.925 203.173 C 222.063 203.408 222.647 205.193 222.058 206.841 C 221.469 208.489 219.324 211.043 218.657 211.71 C 217.99 212.377 213.189 216.511 213.189 216.844 C 213.189 217.177 210.321 219.645 209.721 220.445 C 209.121 221.245 208.12 222.713 207.453 223.713 C 206.786 224.713 205.786 226.248 205.119 227.248 C 204.452 228.248 202.921 229.315 202.587 229.648 C 202.253 229.981 197.583 231.382 197.583 231.382 C 196.745 231.196 193.82 233.281 193.916 233.451 C 194.012 233.621 190.715 234.118 190.381 234.118 C 190.047 234.118 186.381 233.652 185.714 233.318 C 185.047 232.984 179.376 230.183 178.376 229.849 C 177.376 229.515 172.643 228.182 172.643 228.182 C 170.969 228.337 166.355 227.5 165.04 227.917 C 164.906 227.65 163.448 227.677 159.038 228.849 C 154.628 230.021 153.57 231.855 151.569 232.85 C 149.568 233.845 147.282 236.875 144.634 237.385 C 141.986 237.895 141.243 239.881 139.766 240.32 C 138.289 240.759 136.149 242.719 134.563 242.721 C 132.977 242.723 131.362 239.185 130.362 239.852 Z"/>
  <path class="leftLeg" d="M 127.364 237.005 L 128.803 235.923 C 128.803 235.923 131.355 235.039 131.445 235.039 C 131.535 235.039 132.972 234.532 133.062 234.532 C 133.152 234.532 132.483 233.595 132.483 233.595 C 132.483 233.595 131.709 232.761 131.19 232.573 C 130.671 232.385 129.678 232.498 129.362 232.381 C 129.046 232.264 128.618 232.188 128.071 232.117 C 127.524 232.046 126.821 231.926 126.09 231.813 C 125.359 231.7 124.193 231.433 124.012 231.433 C 123.831 231.433 122.672 231.647 122.469 231.775 C 122.266 231.903 121.656 232.535 121.566 232.626 C 121.476 232.717 120.943 233.453 120.943 233.544 C 120.943 233.635 120.462 234.786 120.462 234.876 C 120.462 234.966 119.68 236.481 119.68 236.572 C 119.68 236.663 118.908 238.395 118.908 238.395 C 118.908 238.395 118.05 239.855 118.05 239.946 C 118.05 240.037 116.933 241.891 116.933 241.981 C 116.933 242.071 115.826 243.554 115.493 243.982 C 115.16 244.41 114.053 245.969 114.053 245.969 C 114.053 245.969 112.115 247.973 112.115 248.064 C 112.115 248.155 110.361 250.254 110.361 250.254 C 110.361 250.254 109.093 252.218 109.093 252.398 C 109.093 252.578 108.323 254.399 108.152 254.831 C 107.981 255.263 107.662 256.842 107.586 257.402 C 107.51 257.962 107.562 259.507 107.562 259.688 C 107.562 259.869 107.691 261.517 107.814 262.168 C 107.937 262.819 108.223 263.912 108.446 264.616 C 108.669 265.32 109.04 266.169 109.245 266.439 C 109.45 266.709 109.972 267.685 110.247 268.046 C 110.522 268.407 111.107 268.907 111.572 268.964 C 112.037 269.021 113.164 268.883 113.468 268.569 C 113.772 268.255 114.3 266.487 114.3 266.487 L 114.666 265.181 C 114.666 265.181 114.908 264.521 114.998 264.26 C 115.088 263.999 115.145 263.895 115.544 262.996 C 115.943 262.097 116.148 261.518 116.058 261.608 C 115.968 261.698 115.902 261.807 115.721 262.168 C 115.54 262.529 115.008 263.547 114.918 263.728 C 114.828 263.909 114.585 264.397 114.129 264.682 C 113.673 264.967 113.322 265.1 112.642 265.081 C 111.962 265.062 111.554 265 111.155 264.568 C 110.756 264.136 110.703 263.552 110.399 262.815 C 110.095 262.078 109.649 258.851 109.739 260.182 C 109.829 261.513 109.591 258.472 109.629 257.659 C 109.667 256.846 109.852 256.024 109.852 256.024 C 109.91 255.734 110.085 254.936 110.085 254.936 L 110.485 254.185 C 110.979 253.476 111.702 252.793 112.481 252.304 C 113.26 251.815 114.466 251.116 114.647 251.025 C 114.828 250.934 116.425 250.237 116.425 250.237 C 116.425 250.237 117.639 249.625 118.353 248.606 C 119.067 247.587 119.208 247.479 119.503 246.288 C 119.798 245.097 120.477 243.722 120.477 243.722 C 120.477 243.722 120.596 243.704 120.796 242.424 C 120.996 241.144 121.006 240.992 121.006 240.723 C 121.006 240.454 121.2 239.687 121.2 239.687 L 121.542 238.538 L 122.183 236.794 C 122.183 236.794 122.488 236.181 122.825 235.706 C 123.162 235.231 123.358 234.754 123.752 234.45 C 124.146 234.146 124.508 233.947 124.883 233.814 C 125.258 233.681 125.531 233.539 126.109 233.539 C 126.687 233.539 127.035 233.615 127.111 233.615 C 127.187 233.615 128.157 233.762 128.247 233.762 C 128.337 233.762 128.755 232.872 128.694 234.451 C 128.633 236.03 128.305 235.768 127.605 236.381 C 126.905 236.994 126.855 237.241 126.366 237.664 C 125.877 238.087 125.838 238.163 125.895 238.424 C 125.952 238.685 126.199 237.648 127.364 237.005 Z"/>
  <path class="svgPath" d="M 212.039 156.589 L 212.341 157.931 C 212.341 157.931 212.493 158.432 212.275 159.419 C 212.057 160.406 211.451 160.547 211.408 160.547 C 211.365 160.547 210.105 161.083 209.975 161.213 C 209.845 161.343 209.361 161.542 208.891 162.009 C 208.421 162.476 208.425 162.844 208.208 163.451 C 207.991 164.058 207.644 164.592 207.558 164.766 C 207.472 164.94 207.077 165.282 206.682 165.48 C 206.287 165.678 204.929 165.763 204.495 165.763 C 204.061 165.763 203.744 165.844 203.045 165.573 C 202.346 165.302 202.41 165.249 202.41 165.249 C 202.41 165.249 202.862 164.971 203.625 164.991 C 204.388 165.011 205.522 164.946 205.522 164.946 C 205.522 164.946 206.268 164.777 206.558 164.574 C 206.848 164.371 207.111 164.152 207.111 164.152 C 207.111 164.152 207.269 163.877 207.498 163.332 C 207.727 162.787 206.754 162.882 206.354 163.039 C 205.954 163.196 203.826 163.794 205.302 163.297 C 206.778 162.8 204.499 163.953 204.651 163.372 C 204.803 162.791 204.745 162.784 205.146 162.415 C 205.547 162.046 205.522 161.838 206.594 161.501 C 207.666 161.164 206.994 161.411 207.796 161.142 C 208.598 160.873 208.439 160.842 209.328 160.53 C 210.217 160.218 210.297 160.084 210.47 159.78 C 210.643 159.476 210.864 159.245 211.045 158.736 C 211.226 158.227 211.104 157.675 211.147 157.164 C 211.19 156.653 211.45 155.539 211.347 156.323 C 211.244 157.107 211.255 155.786 211.581 155.083 C 211.581 154.95 212.039 156.366 212.039 156.589 Z"/>
  <path class="svgPath" d="M 201.913 163.005 C 201.913 163.176 202.115 162.847 202.115 162.784 L 202.077 161.35 L 202.133 160.89 L 202.464 160.559 C 202.464 160.559 203.035 160.173 203.292 160.228 C 203.549 160.283 203.623 160.319 203.623 160.375 C 203.623 160.431 203.384 160.78 203.329 160.835 C 203.274 160.89 203.31 160.761 203.016 161.055 C 202.722 161.349 202.612 161.405 202.594 161.442 C 202.576 161.479 202.354 161.773 202.317 161.938 C 202.28 162.103 202.189 162.306 202.152 162.545 C 202.115 162.784 202.097 162.379 202.097 162.379 L 201.913 163.005 Z"/>
  <path class="svgPath" d="M 200.814 158.669 L 201.59 157.032 C 201.59 157.032 201.819 156.408 202.1 155.743 C 202.381 155.078 202.423 154.915 202.423 154.915 C 202.423 154.915 202.542 154.461 202.938 153.885 C 203.334 153.309 203.042 153.792 203.363 153.345 C 203.684 152.898 203.946 152.477 204.178 152.631 C 204.41 152.785 205.128 153.591 205.644 153.772 C 206.16 153.953 206.497 154.03 206.574 154.03 C 206.651 154.03 207.104 154.145 207.258 154.106 C 207.412 154.067 207.464 153.912 207.464 153.886 C 207.464 153.86 207.528 153.782 207.49 153.525 C 207.452 153.268 207.502 153.409 207.167 153.292 C 206.832 153.175 206.727 153.162 206.316 152.854 C 205.905 152.546 205.801 152.493 205.672 152.416 C 205.543 152.339 205.234 152.107 205.079 152.004 C 204.924 151.901 204.842 151.935 204.369 151.385 C 203.896 150.835 204.292 151.204 204.266 151.204 C 204.24 151.204 204.278 151.254 204.085 150.843 C 203.892 150.432 203.943 150.608 203.776 150.25 C 203.609 149.892 203.71 150.053 203.518 149.45 C 203.326 148.847 203.403 149.011 203.326 148.753 C 203.249 148.495 203.093 147.98 203.093 147.98 L 202.139 144.752 C 202.139 144.752 201.598 143.554 201.598 143.528 C 201.598 143.502 200.141 140.484 200.141 140.484 L 199.895 139.568 L 199.598 138.14 L 198.4 133.814 L 197.768 131.714 L 197.008 129.064 C 197.008 129.064 196.627 127.646 196.338 126.98 C 196.049 126.314 195.897 125.779 195.731 125.471 C 195.565 125.163 195.162 124.251 195.162 124.251 L 194.416 122.51 L 194.016 121.35 L 194.079 120.331 L 194.442 119.106 C 194.442 119.106 195.061 118.552 195.266 118.449 C 195.471 118.346 195.782 118.242 196.014 118.191 C 196.246 118.14 197.16 118.165 197.16 118.165 C 197.16 118.165 202.641 117.953 202.667 117.953 C 202.693 117.953 206.097 117.517 206.123 117.517 C 206.149 117.517 208.435 117.13 209.063 117.002 C 209.691 116.874 210.749 116.505 211.074 116.331 C 211.399 116.157 212.024 115.819 212.209 115.635 C 212.394 115.451 212.717 115.2 212.879 114.938 C 213.041 114.676 213.207 113.873 213.207 113.873 C 213.207 113.873 213.43 113.314 213.666 113.076 C 213.902 112.838 214.249 112.671 214.398 112.568 C 214.547 112.465 214.763 112.281 215.038 112.116 C 215.313 111.951 215.466 111.892 215.838 111.729 C 216.21 111.566 216.544 111.462 216.755 111.368 C 216.966 111.274 217.159 111.166 217.516 110.959 C 217.873 110.752 218.186 110.622 218.425 110.56 C 218.664 110.498 219.395 110.143 219.619 110.069 C 219.843 109.995 220.049 109.984 220.359 109.79 C 220.669 109.596 220.949 109.25 220.949 109.218 C 220.949 109.186 221.259 108.893 221.259 108.893 C 221.259 108.893 221.622 108.57 221.654 108.57 C 221.686 108.57 222.376 108.082 222.408 108.082 C 222.44 108.082 223.205 107.286 223.205 107.286 C 223.205 107.286 223.619 106.935 223.651 106.935 C 223.683 106.935 224.256 106.33 224.256 106.33 C 224.256 106.33 224.894 105.884 224.925 105.884 C 224.956 105.884 225.658 105.597 225.69 105.597 C 225.722 105.597 226.455 105.342 226.487 105.342 C 226.519 105.342 226.831 105.156 226.862 105.22 C 226.893 105.284 227.139 105.467 227.139 105.499 C 227.139 105.531 227.452 105.432 227.688 105.11 C 227.924 104.788 228.365 104.129 228.461 104.065 C 228.557 104.001 228.834 103.656 229.011 103.594 C 229.188 103.532 229.64 103.408 229.64 103.376 C 229.64 103.344 229.482 103.239 229.227 103.239 C 228.972 103.239 229.036 103.207 228.781 103.207 C 228.526 103.207 228.164 103.19 227.761 103.239 C 227.358 103.288 227.613 103.315 227.092 103.335 C 226.571 103.355 226.552 103.411 226.133 103.46 C 225.714 103.509 225.34 103.462 225.021 103.653 C 224.702 103.844 224.813 103.825 224.622 103.92 C 224.431 104.015 224.848 103.795 224.271 104.19 C 223.694 104.585 224.258 104.345 223.748 104.504 C 223.238 104.663 222.967 104.44 222.854 104.545 C 222.741 104.65 222.724 104.733 222.663 104.832 C 222.602 104.931 222.628 104.847 222.489 105.112 C 222.35 105.377 222.244 105.513 222.053 105.736 C 221.862 105.959 221.868 105.963 221.686 106.202 C 221.504 106.441 221.504 106.462 221.202 106.65 C 220.9 106.838 221.102 106.808 220.974 106.808 C 220.846 106.808 220.21 106.712 220.114 106.712 C 220.018 106.712 219.795 106.68 219.636 106.68 C 219.477 106.68 219.636 106.68 219.413 106.68 C 219.19 106.68 219.094 106.68 218.967 106.68 C 218.84 106.68 218.712 106.68 218.202 106.648 C 217.692 106.616 217.951 106.646 217.567 106.631 C 217.183 106.616 217.342 106.585 216.864 106.585 C 216.386 106.585 216.7 106.557 216.051 106.555 C 215.402 106.553 215.571 106.567 215.239 106.585 C 214.907 106.603 214.996 106.612 214.665 106.616 C 214.334 106.62 214.653 106.574 214.172 106.65 C 213.691 106.726 214.214 106.663 213.699 106.716 C 213.184 106.769 213.291 106.809 213.024 106.809 C 212.757 106.809 212.326 106.985 211.984 107.016 C 211.642 107.047 211.706 107.052 211.288 107.158 C 210.87 107.264 211.069 107.214 210.428 107.349 C 209.787 107.484 209.48 107.504 209.058 107.583 C 208.636 107.662 208.091 107.953 207.824 108.029 C 207.557 108.105 206.759 108.389 206.759 108.389 L 204.815 109.106 C 204.815 109.106 203.818 109.374 203.624 109.42 C 203.43 109.466 202.319 109.862 201.941 109.974 C 201.563 110.086 200.869 110.344 200.869 110.344 C 200.869 110.344 197.145 111.823 196.918 111.906 C 196.691 111.989 194.608 112.83 194.608 112.83 C 194.608 112.83 193.8 113.177 193.476 113.34 C 193.152 113.503 192.524 113.788 192.329 113.945 C 192.134 114.102 191.995 114.136 191.692 114.423 C 191.389 114.71 191.368 114.684 191.055 115.092 C 190.742 115.5 190.571 115.802 190.481 116.016 C 190.391 116.23 190.295 116.423 190.231 116.729 C 190.167 117.035 190.051 117.716 190.067 117.992 C 190.083 118.268 190.101 118.453 190.258 118.884 C 190.415 119.315 190.647 121.651 190.762 122.064 C 190.877 122.477 191.354 123.588 191.469 123.969 C 191.584 124.35 191.636 125.186 191.616 125.454 C 191.596 125.722 191.79 126.899 191.872 127.224 C 191.954 127.549 192.253 128.74 192.323 128.982 C 192.393 129.224 192.558 129.996 192.68 130.366 C 192.802 130.736 193.094 131.583 193.158 131.71 C 193.222 131.837 194.846 134.972 195.095 135.336 C 195.344 135.7 195.815 136.574 195.988 136.803 C 196.161 137.032 196.981 138.26 197.077 138.356 C 197.173 138.452 198.263 139.935 198.263 139.935 C 198.263 139.935 199.129 141.27 199.333 141.654 C 199.537 142.038 199.99 142.879 200.054 143.007 C 200.118 143.135 201.085 144.37 201.117 144.465 C 201.149 144.56 201.398 144.86 201.551 145.186 C 201.704 145.512 201.8 145.893 201.864 146.116 C 201.928 146.339 202.067 146.72 202.157 147.04 C 202.247 147.36 202.354 147.693 202.38 147.919 C 202.406 148.145 202.48 148.456 202.564 148.914 C 202.648 149.372 202.66 149.482 202.692 149.673 C 202.724 149.864 202.749 149.864 202.799 150.272 C 202.849 150.68 202.812 151.35 202.812 151.35 C 202.812 151.35 202.634 152.009 202.544 152.194 C 202.454 152.379 202.119 153.098 202.035 153.347 C 201.951 153.596 201.722 154.087 201.722 154.119 C 201.722 154.151 201.532 154.881 201.5 154.945 C 201.468 155.009 201.271 156.002 201.271 156.066 C 201.271 156.13 201.061 156.904 200.978 157.672 C 200.895 158.44 200.875 158.543 200.875 158.543 C 200.875 158.543 200.824 158.779 200.814 158.669 Z"/>
  <path class="rightLeg" d="M 295.221 273.543 L 296.312 272.549 L 298.317 271.484 C 299.069 271.204 299.349 270.825 299.916 270.399 C 300.283 270.094 300.765 269.113 300.699 269.216 C 300.601 269.173 301.348 268.511 301.784 268.702 C 301.784 268.702 302.639 269.103 302.748 269.22 C 302.857 269.337 303.513 269.822 303.726 270.024 C 303.939 270.226 304.535 270.596 304.701 270.754 C 304.867 270.912 305.624 271.434 306.148 271.797 C 306.148 271.797 306.778 272.195 306.903 272.32 C 307.028 272.445 307.652 272.862 307.823 273.039 C 307.994 273.216 308.52 273.548 308.77 273.799 C 309.02 274.05 309.534 274.442 309.651 274.605 C 309.768 274.768 310.508 275.409 310.639 275.561 C 310.77 275.713 311.124 276.057 311.386 276.231 C 311.648 276.405 312.557 276.817 312.701 276.92 C 312.845 277.023 313.216 277.213 313.458 277.387 C 313.7 277.561 314.055 277.67 314.357 277.885 C 314.659 278.1 315.575 278.415 315.692 278.492 C 315.809 278.569 316.582 278.893 316.79 278.993 C 316.998 279.093 316.155 278.808 318.051 279.44 C 319.947 280.072 318.95 279.718 319.242 279.82 C 319.242 279.82 320.266 279.977 320.432 280.004 C 320.598 280.031 321.372 280.11 321.66 280.164 C 321.948 280.218 323.263 280.295 323.263 280.295 C 323.263 280.295 324.472 280.353 324.749 280.353 C 325.026 280.353 325.929 280.426 326.4 280.44 C 326.871 280.454 327.447 280.521 327.447 280.521 C 327.447 280.521 328.12 280.62 328.345 280.668 C 328.57 280.716 329.094 280.819 329.094 280.819 L 329.765 281.053 L 330.579 281.491 L 330.873 281.853 C 330.873 281.853 330.869 282.405 330.812 282.524 C 330.755 282.643 330.22 283.046 330.003 283.262 C 329.786 283.478 329.14 284.008 328.927 284.193 C 328.714 284.378 327.374 285.129 327.374 285.129 C 327.374 285.129 325.906 285.809 325.618 285.872 C 325.33 285.935 323.556 286.498 323.556 286.498 L 322.159 286.885 C 322.159 286.885 320.201 287.464 319.95 287.495 C 319.699 287.526 318.78 287.696 318.116 287.754 C 318.116 287.754 316.598 287.709 316.108 287.684 C 315.618 287.659 313.694 287.471 313.694 287.471 C 313.694 287.471 312.164 287.132 311.724 286.982 C 311.284 286.832 309.527 285.964 309.218 285.893 C 308.909 285.822 307.92 285.702 307.352 285.648 C 306.784 285.594 306.101 285.666 305.635 285.643 C 305.169 285.62 304.219 285.73 303.717 285.806 C 303.215 285.882 303.43 285.843 303.179 285.881 C 302.928 285.919 302.238 286.167 301.236 286.381 C 300.234 286.595 300.072 286.582 299.32 286.644 C 298.568 286.706 298.404 286.72 296.837 286.682 C 295.27 286.644 295.422 286.783 294.068 286.607 C 292.714 286.431 291.813 286.282 291.437 286.282 C 291.061 286.282 290.36 285.917 290.36 285.917 C 290.36 285.917 289.92 285.505 290.108 285.505 C 290.296 285.505 292.49 285.267 292.615 285.267 C 292.74 285.267 293.68 285.141 294.056 285.267 C 294.432 285.393 297.878 285.455 297.878 285.455 L 299.382 285.267 C 299.382 285.267 299.757 285.079 300.071 285.016 C 300.385 284.953 300.76 284.828 300.76 284.766 C 300.76 284.704 301.01 284.452 301.136 284.452 C 301.262 284.452 301.95 284.014 302.201 284.014 C 302.452 284.014 302.514 284.014 302.765 284.014 C 303.016 284.014 303.266 284.076 303.955 284.076 C 304.644 284.076 305.271 283.638 305.271 283.7 C 305.271 283.762 306.085 283.7 306.461 283.7 C 306.837 283.7 308.152 283.325 308.152 283.387 C 308.152 283.449 308.654 283.137 308.842 283.137 C 309.03 283.137 309.28 283.074 309.593 283.387 C 309.906 283.7 310.22 283.826 310.596 284.014 C 310.972 284.202 311.41 283.951 311.536 283.951 C 311.662 283.951 312.35 283.575 312.601 283.638 C 312.852 283.701 313.54 283.45 314.042 283.638 C 314.544 283.826 315.044 283.826 315.545 283.951 C 316.046 284.076 317.362 284.202 317.487 284.202 C 317.612 284.202 317.801 284.202 318.552 284.327 C 319.303 284.452 318.615 283.137 318.615 283.137 C 318.615 283.137 318.176 282.385 317.988 282.385 C 317.8 282.385 316.61 282.134 316.61 282.134 C 316.61 282.134 314.042 281.069 313.916 281.069 C 313.79 281.069 313.54 281.382 312.601 280.631 C 311.662 279.88 311.849 279.691 311.097 279.816 C 310.345 279.941 308.09 279.691 308.027 279.691 C 307.964 279.691 307.275 279.315 307.15 279.002 C 307.025 278.689 307.033 278.658 306.712 278.187 C 306.391 277.716 305.913 277.126 305.913 277.126 C 305.913 277.126 305.573 276.667 305.396 276.37 C 305.219 276.073 304.957 275.681 304.957 275.681 C 304.957 275.681 304.306 275.106 303.955 274.93 C 303.604 274.754 303.383 274.653 303.04 274.493 C 302.697 274.333 302.222 275.185 301.7 275.368 C 301.178 275.551 301.375 275.611 300.885 275.932 C 300.395 276.253 299.526 276.316 299.319 276.37 C 299.112 276.424 297.772 276.555 297.126 276.558 C 296.48 276.561 296.124 276.558 295.56 276.558 C 294.996 276.558 292.741 276.12 292.678 276.12 C 292.615 276.12 295.125 275.547 295.372 275.493 C 295.619 275.439 296.138 275.431 296.813 275.431 C 297.488 275.431 297.031 275.477 297.69 275.431 C 298.349 275.385 298.755 275.368 299.194 275.305 C 299.633 275.242 299.841 275.053 300.321 274.867 C 300.801 274.681 300.357 274.869 300.928 274.622 C 301.499 274.375 301.409 274.393 301.759 274.027 C 302.109 273.661 301.976 273.626 302.201 273.489 C 302.426 273.352 302.79 273.143 302.879 272.993 C 302.968 272.843 302.874 272.472 302.874 272.472 L 302.222 271.96 C 302.222 271.96 301.706 271.6 301.485 271.571 C 301.264 271.542 300.978 271.67 300.602 271.795 C 300.226 271.92 300.153 271.975 299.621 272.131 C 299.089 272.287 299.281 272.27 298.467 272.562 C 297.653 272.854 297.064 273.365 296.625 273.49 C 296.186 273.615 294.582 273.847 295.221 273.543 Z"/>
  <path class="svgPath" d="M 248.246 190.423 L 250.058 188.611 L 251.55 186.976 C 251.55 186.976 252.651 185.733 252.687 185.697 C 252.723 185.661 254.676 183.637 254.712 183.637 C 254.748 183.637 255.877 182.446 255.877 182.446 C 255.742 182.413 256.562 182.423 256.844 182.507 C 257.126 182.591 257.332 182.549 258.211 182.985 C 259.09 183.421 259.722 183.637 259.757 183.672 C 259.792 183.707 261.853 184.56 261.924 184.631 C 261.995 184.702 264.767 185.91 264.802 185.946 C 264.837 185.982 267.36 186.976 267.396 187.047 C 267.432 187.118 270.273 188.504 270.345 188.504 C 270.417 188.504 273.968 190.387 273.968 190.387 L 276.171 191.524 C 276.171 191.524 278.409 192.696 278.445 192.732 C 278.481 192.768 280.79 194.153 280.825 194.189 C 280.86 194.225 283.195 195.874 283.195 195.945 C 283.195 196.016 284.662 197.244 284.698 197.244 C 284.734 197.244 286.11 198.572 286.199 198.643 C 286.288 198.714 287.147 199.566 287.428 199.822 C 287.709 200.078 288.5 200.761 288.535 200.797 C 288.57 200.833 289.115 201.324 289.355 201.586 C 289.654 201.913 290.418 202.573 290.418 202.609 C 290.418 202.645 291.662 203.923 291.662 203.923 C 291.662 203.923 292.763 205.238 292.798 205.345 C 292.833 205.452 293.367 206.233 293.474 206.375 C 293.581 206.517 294.125 207.438 294.125 207.438 C 294.125 207.438 294.409 207.977 294.575 208.293 C 294.741 208.609 295.005 209.134 295.037 209.43 C 295.069 209.726 295.057 209.942 295.037 210.354 C 295.017 210.764 295.001 211.117 294.966 211.333 C 294.931 211.549 294.788 212.344 294.788 212.344 L 294.184 214.689 C 294.184 214.689 293.687 216.572 293.687 216.607 C 293.687 216.642 293.367 218.099 293.367 218.17 C 293.367 218.241 293.118 219.663 293.118 219.698 C 293.118 219.733 292.929 221.145 292.932 221.539 C 292.935 221.933 292.921 222.952 292.905 223.287 C 292.889 223.622 293.012 224.672 293.012 224.672 L 293.206 226.461 C 293.206 226.461 293.573 228.664 293.608 228.699 C 293.643 228.734 294.015 230.838 294.015 230.838 L 294.307 232.398 L 294.517 233.835 L 294.766 235.186 C 294.767 235.19 294.919 236.008 294.966 236.535 C 295.013 237.062 295.143 239.034 295.143 239.034 L 295.428 241.556 L 295.676 244.008 C 295.676 244.008 295.962 246.223 296.023 246.637 L 296.236 249.771 C 296.236 249.771 296.504 251.759 296.564 251.974 C 296.624 252.189 297.062 254.982 297.097 254.982 C 297.132 254.982 297.524 258.883 297.524 258.883 C 297.524 258.883 298.151 262.31 298.184 262.448 C 298.217 262.586 298.717 265.543 298.717 265.543 C 298.717 265.543 299.156 266.297 299.194 266.324 C 299.222 266.344 299.372 266.732 299.418 266.807 C 299.464 266.882 299.52 267.5 299.521 267.627 C 299.522 267.754 299.538 268.07 299.484 268.182 C 299.43 268.294 299.376 268.414 299.27 268.528 C 299.164 268.642 299.115 268.657 298.974 268.732 C 298.833 268.807 297.693 269.668 297.586 269.756 C 297.479 269.844 296.652 270.589 296.55 270.644 C 296.448 270.699 295.57 271.32 295.495 271.384 C 295.42 271.448 294.539 271.975 294.539 271.975 C 294.539 271.975 293.017 272.51 292.877 272.57 C 292.737 272.63 291.705 272.925 291.989 272.847 C 292.27 272.832 292.099 272.608 292.099 272.608 C 292.099 272.608 292.377 272.161 292.472 272.089 C 292.567 272.017 293.145 271.465 293.163 271.465 C 293.181 271.465 293.533 271.113 293.607 271.02 C 293.681 270.927 294.232 270.39 294.273 270.336 C 294.314 270.282 294.618 269.855 294.618 269.855 C 294.618 269.855 294.712 269.652 294.769 269.529 C 294.826 269.406 294.943 268.985 294.943 268.985 L 295.217 268.055 L 295.378 267.542 C 295.378 267.542 295.569 266.982 295.569 266.964 C 295.569 266.946 295.665 266.517 295.665 266.517 L 295.698 266.206 C 295.698 266.206 295.724 265.895 295.736 265.733 C 295.748 265.571 295.767 265.346 295.767 265.346 C 295.767 265.346 295.78 265.078 295.777 265.024 C 295.774 264.97 295.787 264.413 295.787 264.413 L 295.786 263.895 L 295.754 263.392 C 295.754 263.392 295.707 262.818 295.707 262.8 C 295.707 262.782 295.607 261.986 295.607 261.967 C 295.607 261.948 295.461 260.954 295.461 260.954 C 295.461 260.954 295.339 260.229 295.319 260.191 C 295.299 260.153 295.18 259.543 295.18 259.543 L 294.699 257.337 L 294.514 256.504 L 293.948 254.48 L 293.552 253.07 L 292.46 249.511 L 291.368 246.11 L 290.628 243.301 L 289.777 238.975 L 289.008 236.019 C 289.008 236.019 288.13 232.127 288.308 232.922 C 288.486 233.717 287.906 230.734 287.906 230.734 C 287.895 230.743 287.721 228.634 287.667 227.975 L 287.491 224.898 L 287.358 222.47 L 287.278 219.328 C 287.278 219.328 287.352 217.124 287.352 217.105 C 287.352 217.086 287.538 215.426 287.538 215.426 L 287.834 212.851 L 287.97 210.057 C 287.97 210.057 288.022 208.099 287.976 207.77 C 287.93 207.441 287.346 205.35 287.479 205.697 C 287.612 206.044 286.833 204.727 286.617 204.469 C 286.401 204.211 285.242 203.712 285.242 203.712 C 285.242 203.712 283.637 203.248 283.375 203.183 C 283.113 203.118 280.214 202.541 279.92 202.476 C 279.626 202.411 276.667 201.416 276.601 201.416 C 276.535 201.416 273.341 200.163 273.341 200.163 C 272.516 199.806 267.018 196.988 267.018 196.988 L 263.795 194.675 C 263.795 194.675 260.575 192.941 260.36 192.825 C 260.145 192.709 258.262 192.032 257.831 191.899 C 257.4 191.766 255.502 191.421 255.254 191.371 C 255.006 191.321 253.304 191.007 253.007 190.974 C 252.71 190.941 250.958 190.776 250.562 190.71 C 250.166 190.644 248.513 190.445 248.246 190.423 Z"/>
  <path class="svgPath" d="M 205.627 192.567 C 205.627 192.567 208.196 194.533 208.419 194.713 C 208.642 194.893 209.762 195.825 210.015 195.91 C 210.268 195.995 211.877 195.91 212.076 195.91 C 212.275 195.91 214.61 195.832 214.743 195.832 C 214.876 195.832 215.933 195.843 216.531 195.843 C 217.129 195.843 217.981 195.936 218.792 195.843 C 219.603 195.75 220.327 195.447 220.52 195.378 C 220.713 195.309 221.022 195.232 221.451 195.112 C 221.88 194.992 222.267 194.882 222.648 194.846 C 223.029 194.81 223.712 194.882 224.044 194.979 C 224.376 195.076 225 195.239 225.302 195.469 C 225.604 195.699 225.96 195.928 226.16 196.158 C 226.36 196.388 226.914 197.094 227.162 197.434 C 227.41 197.774 227.987 198.551 228.228 198.853 C 228.469 199.155 228.684 199.576 228.952 200.124 C 229.22 200.672 229.522 201.139 229.637 201.29 C 229.752 201.441 230.12 201.919 230.319 202.118 C 230.518 202.317 230.724 202.596 230.959 202.801 C 231.194 203.006 231.304 202.983 231.425 203.049 C 231.546 203.115 231.878 203.15 232.234 203.098 C 232.59 203.046 232.939 202.946 233.383 202.523 C 233.827 202.1 233.943 201.842 234.151 201.561 C 234.359 201.28 234.494 201.085 234.816 200.722 C 235.138 200.359 235.495 200.127 235.741 199.814 C 235.987 199.501 236.489 198.997 236.816 198.708 C 237.143 198.419 237.571 198.098 238.024 197.87 C 238.477 197.642 239.167 197.391 239.646 197.258 C 240.125 197.125 241.286 196.792 241.647 196.605 C 242.008 196.418 242.643 196.098 243.073 195.511 C 243.503 194.924 243.842 194.324 243.998 193.975 C 244.154 193.626 244.528 192.781 244.722 192.212 C 244.916 191.643 245.436 189.799 245.328 190.247 C 245.22 190.695 245.83 188.352 245.896 187.888 C 245.962 187.424 246.216 186.493 246.331 186.04 C 246.446 185.587 246.798 184.43 246.967 183.852 C 247.136 183.274 247.323 182.637 247.455 182.238 C 247.587 181.839 247.897 180.937 248.023 180.581 C 248.149 180.225 248.368 179.437 248.512 178.955 C 248.656 178.473 248.8 177.941 248.795 177.654 C 248.79 177.367 248.697 176.162 248.697 176.163 C 248.697 176.163 248.379 176.628 248.246 176.894 C 248.113 177.16 247.581 178.157 247.382 178.556 C 247.183 178.955 247.184 178.868 246.785 179.599 C 246.386 180.33 246.119 180.551 245.853 181.083 C 245.587 181.615 243.925 183.676 243.925 183.676 C 243.925 183.676 243.792 183.795 243.526 184.061 C 243.26 184.327 242.794 184.69 242.462 184.956 C 242.13 185.222 241.398 185.887 240.866 186.286 C 240.334 186.685 240.285 186.819 239.753 187.285 C 239.221 187.751 238.825 188.112 238.626 188.245 C 238.427 188.378 238.324 188.497 237.925 188.829 C 237.526 189.161 237.395 189.179 236.861 189.644 C 236.327 190.109 236.345 190.125 236.079 190.325 C 235.813 190.525 235.547 190.724 235.082 190.99 C 234.617 191.256 234.635 191.254 234.284 191.389 C 233.933 191.524 232.253 191.457 231.89 191.455 C 231.527 191.453 230.76 191.588 230.228 191.787 C 229.696 191.986 228.29 192.098 227.84 192.053 C 227.39 192.008 226.641 191.822 226.34 191.768 C 226.079 191.721 225.664 191.606 225.241 191.522 C 224.818 191.438 223.997 191.256 223.778 191.189 C 223.559 191.122 222.474 190.79 221.451 190.657 C 220.428 190.524 219.649 190.494 219.257 190.524 C 218.865 190.554 217.329 190.724 216.797 191.056 C 216.265 191.388 215.958 191.545 215.503 191.612 C 215.048 191.679 214.075 191.818 213.41 191.884 C 212.745 191.95 212.524 191.927 211.652 191.933 C 210.78 191.939 210.82 191.913 209.706 191.956 C 208.592 191.999 208.35 192.012 207.958 192.03 C 207.566 192.048 207.09 192.12 207.023 192.12 C 206.956 192.12 206.351 192.253 206.092 192.319 C 205.833 192.385 205.51 192.472 205.627 192.567 Z"/>
  <path class="svgPath" d="M 248.083 186.452 L 249.726 184.383 C 249.726 184.383 250.383 183.483 250.69 182.966 C 250.997 182.449 251.365 181.5 251.365 181.5 L 251.718 180.222 L 251.887 179.11 L 251.919 178.525 C 251.919 178.525 253.951 180.676 254.21 180.984 C 254.469 181.292 254.632 181.495 254.632 181.495 C 254.632 181.495 247.781 186.688 248.083 186.452 Z"/>
  <path class="svgPath" d="M 211.88 184.307 C 211.88 184.307 214.378 179.648 214.629 179.061 C 214.88 178.474 216.245 176.118 216.578 175.494 C 216.911 174.87 218.089 173.048 218.089 173.048 L 219.56 171.194 C 220.092 170.623 221.119 169.933 221.618 169.697 L 223.732 168.7 C 223.732 168.7 225.481 168.241 225.809 168.155 C 226.137 168.069 227.845 167.798 227.845 167.798 L 230.482 167.825 C 230.482 167.825 231.629 167.94 231.815 167.969 C 232.001 167.998 233.348 168.226 233.348 168.226 C 233.348 168.226 234.467 168.499 234.524 168.499 C 234.581 168.499 231.615 166.477 231.615 166.477 L 229.087 164.951 C 229.087 164.951 227.457 164.059 226.88 163.759 C 226.591 163.608 226.141 163.387 225.899 163.288 C 225.551 163.146 225.053 162.998 224.777 162.937 C 224.235 162.817 223.267 162.825 223.115 162.825 C 222.963 162.825 221.875 163.007 221.452 163.109 C 220.806 163.265 219.792 163.622 219.56 163.733 C 219.56 163.733 218.134 164.315 217.496 164.715 C 217.072 164.981 216.66 165.429 216.349 165.683 C 216.038 165.937 215.088 167.065 215.03 167.18 C 214.972 167.295 214.111 168.264 213.826 169.072 C 213.747 168.993 212.779 171.404 212.826 171.451 C 212.826 171.451 212.552 173.019 212.31 174.375 C 212.246 174.566 211.617 179.731 211.638 179.717 C 211.559 180.11 211.833 184.541 211.88 184.307 Z"/>
  <path class="svgPath" d="M 225.111 108.207 C 225.083 108.068 223.325 111.164 222.879 111.839 C 222.433 112.514 221.562 115.766 221.07 117.468 C 220.905 118.207 220.096 121.418 219.964 122.695 C 219.832 123.972 219.852 129.264 219.863 128.324 C 219.874 127.384 219.763 132.545 219.763 132.545 C 219.763 132.545 219.742 136.497 219.765 137.182 C 219.788 137.867 220.064 141.988 220.165 142.597 C 220.266 143.206 220.768 144.708 220.869 145.11 C 220.97 145.512 221.17 148.125 221.17 148.427 C 221.17 148.729 221.371 151.443 221.371 152.347 C 221.371 153.251 221.371 155.363 221.07 156.267 C 220.769 157.171 221.951 159.407 221.951 159.407 L 222.259 157.054 L 223.985 149.131 C 224.752 145.07 224.576 138.631 224.588 139.481 C 224.6 140.331 223.908 134.227 223.599 133.227 C 223.29 132.227 222.633 129.637 222.424 129.233 C 222.215 128.829 222.118 125.686 222.159 124.88 C 222.2 124.074 222.653 121.964 222.69 120.379 C 222.727 118.794 223.582 114.749 223.582 114.749 L 225.111 108.207 Z"/>
  <path class="svgPath" d="M 245.668 108.404 L 246.442 110.983 C 246.442 110.983 247.189 112.607 247.318 112.865 C 247.447 113.123 248.763 116.037 248.995 116.476 C 249.227 116.915 250.697 118.926 250.929 119.236 C 251.161 119.546 252.321 121.066 252.605 121.505 C 252.889 121.944 253.526 122.347 253.766 122.666 C 254.006 122.985 254.594 123.331 254.669 123.697 C 254.744 124.063 254.695 125.53 254.669 126.276 C 254.656 126.661 254.322 129.005 254.256 129.861 C 254.19 130.717 253.766 136.335 253.766 136.335 L 252.58 143.942 C 252.58 143.942 252.174 147.393 252.09 147.94 C 252.006 148.487 251.528 151.314 251.445 151.937 C 251.362 152.56 251.058 155.548 250.929 156.322 C 250.8 157.096 250.619 158.101 250.542 158.772 C 250.468 159.41 250.503 161.511 250.438 162.356 C 250.373 163.201 249.768 166.999 249.768 166.999 L 248.995 172.312 C 249.059 172.6 245.973 172.643 245.771 172.312 C 245.569 171.981 243.373 170.043 242.212 169.398 C 241.051 168.753 238.679 167.798 237.647 167.025 C 236.615 166.252 232.747 164.446 232.618 164.446 C 232.489 164.446 229.781 162.64 229.136 162.254 C 228.491 161.868 225.783 160.19 225.526 160.19 C 225.269 160.19 226.944 160.319 227.202 160.319 C 227.46 160.319 229.911 160.422 230.452 160.422 C 230.993 160.422 233.237 160.422 234.371 160.396 C 235.505 160.37 237.776 159.932 237.776 159.932 C 237.776 159.932 239.401 159.03 239.736 158.772 C 240.071 158.514 241 157.611 241.361 157.301 C 241.722 156.991 244.352 153.743 244.352 153.743 C 244.352 153.743 245.023 152.84 245.307 152.376 C 245.591 151.912 246.494 149.977 246.726 149.719 C 246.958 149.461 247.782 147.915 248.195 147.476 C 248.608 147.037 249.356 144.381 249.356 144.381 C 249.347 144.443 249.016 147.013 250.232 138.887 C 250.232 138.887 250.438 136.54 250.49 135.921 C 250.542 135.302 250.671 132.853 250.671 132.595 C 250.671 132.337 250.748 130.866 250.671 130.532 C 250.594 130.198 250.026 128.21 249.897 127.823 C 249.768 127.436 249.74 127.127 249.176 126.353 C 248.612 125.579 248.556 125.631 248.04 124.471 C 247.524 123.311 247.318 122.82 246.983 121.918 C 246.648 121.016 246.287 120.087 245.9 119.184 C 245.513 118.281 245.185 116.811 244.997 116.089 C 244.809 115.367 244.533 114.103 244.481 113.639 C 244.429 113.175 244.223 110.57 244.3 110.312 C 244.377 110.054 245.797 108.275 245.668 108.404 Z"/>
  <path class="svgPath" d="M 242.905 92.58 C 242.905 92.58 245.804 92.528 246.466 92.927 C 247.128 93.326 247.53 93.992 247.732 94.4 C 247.934 94.808 248.228 95.455 248.928 96.401 C 249.628 97.347 251.056 98.278 251.135 98.357 C 251.214 98.436 254.301 99.861 255.251 100.89 C 256.201 101.919 256.596 102.235 257.071 102.631 C 257.546 103.027 258.258 103.185 258.337 103.976 C 258.416 104.767 258.417 105.164 258.575 105.718 C 258.733 106.272 258.952 106.892 259.129 107.696 C 259.306 108.5 259.608 108.98 259.92 109.437 C 260.232 109.894 260.578 110.172 261.295 110.97 C 262.012 111.768 262.936 112.636 263.323 112.999 C 263.71 113.362 265.345 114.603 265.877 115.294 C 266.409 115.985 267.281 116.639 267.914 117.193 C 268.547 117.747 270.525 118.697 270.842 118.934 C 271.159 119.171 271.95 119.488 271.95 119.488 L 269.101 115.373 C 269.101 115.373 267.835 113.315 267.597 112.92 C 267.359 112.525 265.918 109.775 265.57 109.336 C 265.222 108.897 264.428 108.16 263.824 107.682 C 263.22 107.204 262.928 106.984 262.532 106.667 C 262.136 106.35 260.725 104.86 260.633 104.451 C 260.541 104.042 261.187 102.629 261.187 101.365 C 261.187 100.101 261.028 99.765 260.712 98.99 C 260.396 98.215 259.445 97.17 259.445 97.17 C 259.445 97.17 258.161 95.777 258.021 95.587 C 257.881 95.397 256.913 94.303 256.517 94.004 C 256.121 93.705 255.532 93.257 255.251 93.055 C 254.97 92.853 253.681 92.176 253.224 92.022 C 252.767 91.868 252.696 91.774 251.927 91.63 C 251.158 91.486 249.502 91.463 248.524 91.472 C 247.546 91.481 246.206 91.459 245.437 91.63 C 244.668 91.801 242.659 92.557 242.905 92.58 Z"/>
  <path class="svgPath" d="M 240.135 93.812 C 240.135 93.812 239.343 95.033 239.264 95.112 C 239.185 95.191 238.631 96.07 238.552 96.307 C 238.473 96.544 238.208 96.962 238.115 97.581 C 238.022 98.2 237.998 97.962 238.393 99.386 C 238.788 100.81 238.664 100.249 239.031 101.506 C 239.398 102.763 239.614 103.369 239.87 104.083 C 240.126 104.797 240.341 105.657 240.499 106.048 C 240.657 106.439 241.229 107.775 241.229 107.775 C 241.229 107.775 241.848 109.011 241.958 109.337 C 242.068 109.663 242.461 110.757 242.54 111.167 C 242.619 111.577 243.221 113.315 243.221 113.474 C 243.221 113.633 243.617 114.661 243.142 114.028 C 242.667 113.395 240.406 108.984 240.406 108.984 C 240.406 108.984 238.232 105.462 237.866 104.579 C 237.5 103.696 236.944 102.926 236.415 101.365 C 235.886 99.804 235.808 98.938 235.808 98.938 C 235.808 98.938 235.575 97.85 235.716 97.263 C 235.857 96.676 236.199 95.953 236.463 95.671 C 236.727 95.389 237.621 94.589 237.621 94.589 C 238.674 93.288 240.371 93.521 240.135 93.812 Z"/>
  <path class="svgPath" d="M 230.083 102.473 C 230.083 102.473 230.484 100.801 230.674 100.55 C 230.864 100.299 232.333 99.208 232.695 98.516 C 233.057 97.824 233.012 97.333 233.249 96.774 C 233.486 96.215 234.069 95.223 234.595 94.638 C 235.121 94.053 237.231 92.46 237.706 92.302 C 238.181 92.144 237.682 92.435 237.682 92.435 L 236.182 93.753 C 236.182 93.753 235.129 94.787 234.832 95.35 C 234.535 95.913 234.425 96.133 234.199 96.695 C 233.973 97.257 234.061 97.114 233.534 98.511 C 233.007 99.908 233.342 99.647 233.012 99.94 C 232.682 100.233 232.528 100.13 231.904 100.652 C 231.28 101.174 230.479 102.314 230.083 102.473 Z"/>
  <path class="svgPath" d="M 257.588 128.579 C 257.588 128.579 257.45 128.453 257.508 128.511 C 257.566 128.569 260.383 130.848 260.667 131.073 C 260.951 131.298 262.716 131.972 262.941 132.028 C 263.166 132.084 264.416 132.147 264.416 132.147 L 265.974 132.144 C 265.974 132.144 267.23 132.047 267.456 131.964 C 267.682 131.881 268.54 131.551 268.796 131.44 C 269.052 131.329 270.038 130.854 270.235 130.743 C 270.432 130.632 271.361 129.842 271.361 129.842 L 272.117 129.051 C 272.117 129.051 273.051 128.008 273.274 127.783 C 273.497 127.558 274.389 126.429 274.389 126.429 L 274.855 125.497 L 275.437 123.516 L 275.962 122.234 L 276.137 121.594 C 276.137 121.594 276.132 121.323 276.074 121.44 C 276.016 121.557 275.027 122.586 274.911 122.645 C 274.795 122.704 274.447 123.167 274.214 123.574 C 273.981 123.981 273.831 124.426 273.69 124.74 C 273.549 125.054 273.107 125.941 272.938 126.257 C 272.769 126.573 272.233 127.187 272.175 127.303 C 272.117 127.419 271.24 128.096 271.24 128.096 L 270.211 128.279 C 270.211 128.279 269.279 128.177 269.081 128.089 C 268.883 128.001 267.863 127.653 267.863 127.653 C 267.863 127.653 266.954 127.414 266.407 127.653 C 265.86 127.892 265.849 128.061 265.591 128.294 C 265.333 128.527 265.061 128.79 264.834 128.993 C 264.607 129.196 264.629 129.254 264.309 129.517 C 263.989 129.78 263.836 129.897 263.61 129.983 C 263.384 130.069 263.327 130.158 262.861 130.275 C 262.395 130.392 262.232 130.48 261.979 130.508 C 261.726 130.536 260.561 130.505 260.561 130.505 L 257.588 128.579 Z"/>
  <path class="svgPath" d="M 268.364 107.328 C 268.364 107.328 269.902 107.634 269.976 107.634 C 270.05 107.634 272.089 109.082 272.089 109.157 C 272.089 109.232 272.363 109.946 272.438 110.095 C 272.513 110.244 273.602 110.319 273.482 110.692 C 273.362 111.065 274.776 111.407 275.149 111.78 C 275.522 112.153 276.032 112.258 276.167 112.631 C 276.302 113.004 277.062 113.377 277.062 113.452 C 277.062 113.527 277.585 114.496 277.659 114.869 C 277.733 115.242 278.71 115.622 278.859 115.846 C 279.008 116.07 279.289 116.84 279.289 116.914 C 279.289 116.988 279.151 118.002 279.002 118.151 C 278.853 118.3 278.877 118.32 278.578 118.693 C 278.279 119.066 277.901 118.638 277.435 119.419 C 276.969 120.2 276.539 118.376 276.615 118.151 C 276.691 117.926 276.976 116.734 276.988 116.385 C 277 116.036 276.839 115.391 276.615 114.944 C 276.391 114.497 275.794 113.526 275.72 113.526 C 275.646 113.526 275.198 113.303 274.675 113.154 C 274.152 113.005 273.407 113.004 273.407 112.482 C 273.407 111.96 273.482 111.214 273.407 111.14 C 273.332 111.066 273.034 110.841 272.363 110.692 C 271.692 110.543 271.543 110.617 271.244 110.319 C 270.945 110.021 270.274 109.2 270.2 108.902 C 270.126 108.604 268.193 107.328 268.364 107.328 Z"/>
</svg>